<?xml version="1.0" encoding="UTF-8" standalone="no"?>
<svg width="12px" height="7px" viewBox="0 0 12 7" version="1.1" xmlns="http://www.w3.org/2000/svg" xmlns:xlink="http://www.w3.org/1999/xlink" xmlns:sketch="http://www.bohemiancoding.com/sketch/ns">
    <!-- Generator: Sketch 3.3.3 (12081) - http://www.bohemiancoding.com/sketch -->
    <title>Shape Copy</title>
    <desc>Created with Sketch.</desc>
    <defs></defs>
    <g id="Page-1" stroke="none" stroke-width="1" fill="none" fill-rule="evenodd" sketch:type="MSPage">
        <g id="Homepage" sketch:type="MSArtboardGroup" transform="translate(-438.000000, -114.000000)" fill="#DC1E3F">
            <g id="Header" sketch:type="MSLayerGroup" transform="translate(-27.000000, 0.000000)">
                <g id="Primary-Nav" transform="translate(190.000000, 37.000000)" sketch:type="MSShapeGroup">
                    <g id="Down" transform="translate(183.000000, 61.000000)">
                        <path d="M92.516,16.548 C92.952,16.102 93.559,16.067 94.092,16.548 L98,20.295 L101.908,16.548 C102.441,16.067 103.049,16.102 103.482,16.548 C103.918,16.993 103.89,17.745 103.482,18.163 C103.076,18.581 98.787,22.665 98.787,22.665 C98.57,22.888 98.285,23 98,23 C97.715,23 97.43,22.888 97.211,22.665 C97.211,22.665 92.924,18.581 92.516,18.163 C92.107,17.745 92.08,16.993 92.516,16.548 L92.516,16.548 Z" id="Shape-Copy"></path>
                    </g>
                </g>
            </g>
        </g>
    </g>
</svg>