<?xml version="1.0" encoding="UTF-8" standalone="no"?>
<svg width="31px" height="30px" viewBox="0 0 31 30" version="1.1" xmlns="http://www.w3.org/2000/svg" xmlns:xlink="http://www.w3.org/1999/xlink" xmlns:sketch="http://www.bohemiancoding.com/sketch/ns">
    <!-- Generator: Sketch 3.3.3 (12081) - http://www.bohemiancoding.com/sketch -->
    <title>Facebook</title>
    <desc>Created with Sketch.</desc>
    <defs></defs>
    <g id="Page-1" stroke="none" stroke-width="1" fill="none" fill-rule="evenodd" sketch:type="MSPage">
        <g id="Homepage" sketch:type="MSArtboardGroup" transform="translate(-573.000000, -2558.000000)">
            <g id="Footer" sketch:type="MSLayerGroup" transform="translate(0.000000, 2463.000000)">
                <g transform="translate(156.000000, 60.000000)" id="Footer-Link" sketch:type="MSShapeGroup">
                    <g transform="translate(2.000000, 0.000000)">
                        <g id="Social-Links" transform="translate(376.000000, 35.000000)">
                            <g id="Facebook" transform="translate(39.500000, 0.000000)">
                                <path d="M0.0570809249,15 C0.0570809249,6.71572834 6.78251408,0 15.0787572,0 C23.3750004,0 30.1004335,6.71572834 30.1004335,15 C30.1004335,23.2842717 23.3750004,30 15.0787572,30 C6.78251408,30 0.0570809249,23.2842717 0.0570809249,15 Z" fill="#3B5998"></path>
                                <path d="M16.3348574,23.1598365 L16.3348574,14.9990445 L18.5875929,14.9990445 L18.886129,12.1867904 L16.3348574,12.1867904 L16.3386848,10.7792302 C16.3386848,10.045751 16.4083751,9.65273611 17.461863,9.65273611 L18.8701815,9.65273611 L18.8701815,6.84016353 L16.6171271,6.84016353 C13.9108464,6.84016353 12.9583058,8.20440933 12.9583058,10.4986418 L12.9583058,12.1871089 L11.2713855,12.1871089 L11.2713855,14.999363 L12.9583058,14.999363 L12.9583058,23.1598365 L16.3348574,23.1598365 Z" id="Path" fill="#FFFFFF"></path>
                            </g>
                        </g>
                    </g>
                </g>
            </g>
        </g>
    </g>
</svg>