<?xml version="1.0" encoding="UTF-8" standalone="no"?>
<svg width="16px" height="16px" viewBox="0 0 16 16" version="1.1" xmlns="http://www.w3.org/2000/svg" xmlns:xlink="http://www.w3.org/1999/xlink" xmlns:sketch="http://www.bohemiancoding.com/sketch/ns">
    <!-- Generator: Sketch 3.3.3 (12081) - http://www.bohemiancoding.com/sketch -->
    <title>icon-search</title>
    <desc>Created with Sketch.</desc>
    <defs></defs>
    <g id="Page-1" stroke="none" stroke-width="1" fill="none" fill-rule="evenodd" sketch:type="MSPage">
        <g id="Homepage" sketch:type="MSArtboardGroup" transform="translate(-1168.000000, -37.000000)" fill="#FFFFFF">
            <g id="Header" sketch:type="MSLayerGroup" transform="translate(-27.000000, 0.000000)">
                <g id="Search" transform="translate(927.000000, 27.000000)" sketch:type="MSShapeGroup">
                    <g id="magnifying-glass" transform="translate(268.000000, 10.000000)">
                        <path d="M15.545,13.467 L11.766,9.688 C12.336,8.753 12.664,7.653 12.664,6.478 C12.664,3.061 9.703,0.101 6.286,0.101 C2.869,0.1 0.1,2.87 0.1,6.287 C0.1,9.703 3.061,12.664 6.477,12.664 C7.614,12.664 8.677,12.355 9.592,11.82 L13.391,15.621 C13.763,15.992 14.366,15.992 14.737,15.621 L15.68,14.678 C16.051,14.307 15.916,13.838 15.545,13.467 L15.545,13.467 Z M2.004,6.287 C2.004,3.921 3.921,2.004 6.286,2.004 C8.652,2.004 10.76,4.111 10.76,6.478 C10.76,8.843 8.842,10.761 6.477,10.761 C4.111,10.76 2.004,8.652 2.004,6.287 L2.004,6.287 Z" id="icon-search"></path>
                    </g>
                </g>
            </g>
        </g>
    </g>
</svg>