<?xml version="1.0" encoding="UTF-8" standalone="no"?>
<svg width="31px" height="30px" viewBox="0 0 31 30" version="1.1" xmlns="http://www.w3.org/2000/svg" xmlns:xlink="http://www.w3.org/1999/xlink" xmlns:sketch="http://www.bohemiancoding.com/sketch/ns">
    <!-- Generator: Sketch 3.3.3 (12081) - http://www.bohemiancoding.com/sketch -->
    <title>linkedin@3x</title>
    <desc>Created with Sketch.</desc>
    <defs></defs>
    <g id="Page-1" stroke="none" stroke-width="1" fill="none" fill-rule="evenodd" sketch:type="MSPage">
        <g id="Homepage" sketch:type="MSArtboardGroup" transform="translate(-655.000000, -2558.000000)">
            <g id="Footer" sketch:type="MSLayerGroup" transform="translate(0.000000, 2463.000000)">
                <g transform="translate(156.000000, 60.000000)" id="Footer-Link" sketch:type="MSShapeGroup">
                    <g transform="translate(2.000000, 0.000000)">
                        <g id="Social-Links" transform="translate(376.000000, 35.000000)">
                            <g id="linkedin" transform="translate(121.500000, 0.000000)">
                                <path d="M0.228323699,15 C0.228323699,6.71572834 6.95375685,0 15.25,0 C23.5462431,0 30.2716763,6.71572834 30.2716763,15 C30.2716763,23.2842717 23.5462431,30 15.25,30 C6.95375685,30 0.228323699,23.2842717 0.228323699,15 Z" id="LinkedIN" fill="#007BB6"></path>
                                <path d="M11.4212533,11.8549072 L8.02192525,11.8549072 L8.02192525,22.0684768 L11.4212533,22.0684768 L11.4212533,11.8549072 Z" id="Path" fill="#FFFFFF"></path>
                                <path d="M11.6451416,8.69543807 C11.6230786,7.69400403 10.9069483,6.931252 9.74405956,6.931252 C8.58117085,6.931252 7.82091454,7.69400403 7.82091454,8.69543807 C7.82091454,9.67612893 8.55870056,10.4608443 9.6999336,10.4608443 L9.72165715,10.4608443 C10.9069483,10.4608443 11.6451416,9.67612893 11.6451416,8.69543807 Z" id="Path" fill="#FFFFFF"></path>
                                <path d="M23.6805305,16.2123281 C23.6805305,13.0751613 22.0035405,11.6150728 19.766626,11.6150728 C17.9618064,11.6150728 17.1537583,12.6064064 16.7025873,13.3018448 L16.7025873,11.8551783 L13.302852,11.8551783 C13.3476568,12.8135669 13.302852,22.068748 13.302852,22.068748 L16.7025873,22.068748 L16.7025873,16.3646481 C16.7025873,16.0593981 16.7246503,15.7548938 16.8145315,15.5363449 C17.0602113,14.9265229 17.6195926,14.2951443 18.5587288,14.2951443 C19.7892999,14.2951443 20.2812025,15.2317051 20.2812025,16.6042113 L20.2812025,22.0684768 L23.6803948,22.0684768 L23.6805305,16.2123281 Z" id="Path" fill="#FFFFFF"></path>
                                <path d="M30.2716763,15 C30.2716763,23.2842717 23.5462431,30 15.25,30 C12.1731199,30 9.31230359,29.0762567 6.93056843,27.4913877 L24.1428476,2.90970552 C27.8597291,5.64032516 30.2716763,10.0388986 30.2716763,15 Z" id="reflec" fill-opacity="0.08" fill="#000000"></path>
                            </g>
                        </g>
                    </g>
                </g>
            </g>
        </g>
    </g>
</svg>