<?xml version="1.0" encoding="UTF-8" standalone="no"?>
<svg width="72px" height="72px" viewBox="0 0 72 72" version="1.1" xmlns="http://www.w3.org/2000/svg" xmlns:xlink="http://www.w3.org/1999/xlink" xmlns:sketch="http://www.bohemiancoding.com/sketch/ns">
    <!-- Generator: Sketch 3.3.3 (12081) - http://www.bohemiancoding.com/sketch -->
    <title>noun_166626_cc</title>
    <desc>Created with Sketch.</desc>
    <defs></defs>
    <g id="Page-1" stroke="none" stroke-width="1" fill="none" fill-rule="evenodd" sketch:type="MSPage">
        <g id="Homepage" sketch:type="MSArtboardGroup" transform="translate(-1046.000000, -1454.000000)">
            <g id="Browse" sketch:type="MSLayerGroup" transform="translate(0.000000, 1102.000000)">
                <g id="Cards" transform="translate(149.000000, 289.000000)" sketch:type="MSShapeGroup">
                    <g id="noun_166626_cc" transform="translate(897.000000, 63.000000)">
                        <g id="Group">
                            <rect id="Rectangle-path" fill="#DD2A49" transform="translate(20.389784, 51.609554) rotate(45.000000) translate(-20.389784, -51.609554) " x="19.6397916" y="39.3251714" width="1.49998561" height="24.5687644"></rect>
                            <path d="M12.901,66.656 L5.345,59.099 L25.298,39.146 L23.177,37.024 L1.103,59.099 L12.901,70.898 L34.976,48.823 L32.854,46.703 L12.901,66.656 Z" id="Shape" fill="#DD2A49"></path>
                            <path d="M42.308,28.12 L57.151,13.275 L55.514,11.636 L64.114,5.203 L66.797,7.886 L60.364,16.487 L58.726,14.848 L43.88,29.693 L46.002,31.814 L58.726,19.09 L60.692,21.057 L70.756,7.603 L64.399,1.244 L50.945,11.308 L52.909,13.274 L40.187,25.999 L42.308,28.12 Z" id="Shape" fill="#DD2A49"></path>
                            <rect id="Rectangle-path" fill="#69788C" transform="translate(36.084331, 35.909555) rotate(224.995949) translate(-36.084331, -35.909555) " x="25.1351617" y="35.1595091" width="21.8983384" height="1.50009168"></rect>
                            <path d="M67.22,47.816 C64.628,45.224 61.182,43.797 57.518,43.797 C56.508,43.797 55.518,43.915 54.554,44.127 L27.865,17.437 C28.834,13.017 27.615,8.21 24.185,4.781 C21.597,2.194 18.156,0.769 14.495,0.769 C13.087,0.769 11.692,0.983 10.351,1.406 L9.742,3.897 L13.658,7.812 C15.315,9.47 15.314,12.167 13.656,13.827 C12.853,14.63 11.785,15.072 10.65,15.072 C9.514,15.072 8.446,14.63 7.642,13.827 L3.814,9.997 L1.313,10.639 C-0.089,15.452 1.24,20.643 4.781,24.185 C7.373,26.776 10.818,28.204 14.482,28.204 L14.483,28.204 C15.588,28.204 16.67,28.058 17.718,27.806 L44.202,54.29 C43.12,58.784 44.313,63.719 47.815,67.221 C50.402,69.808 53.843,71.233 57.505,71.233 C58.914,71.233 60.308,71.019 61.649,70.596 L62.258,68.105 L58.342,64.189 C57.539,63.386 57.097,62.318 57.097,61.183 C57.097,60.046 57.54,58.979 58.344,58.175 C59.148,57.372 60.215,56.93 61.352,56.93 C62.488,56.93 63.555,57.371 64.358,58.174 L68.188,62.004 L70.689,61.362 C72.089,56.547 70.76,51.357 67.22,47.816 L67.22,47.816 Z M6.901,22.063 C4.794,19.955 3.689,17.098 3.767,14.194 L5.52,15.948 C6.891,17.318 8.712,18.072 10.649,18.072 C12.586,18.072 14.407,17.318 15.776,15.948 C18.604,13.12 18.605,8.519 15.778,5.691 L13.874,3.787 C16.929,3.613 19.895,4.735 22.063,6.902 C26.242,11.082 26.242,17.882 22.063,22.062 C20.038,24.087 17.345,25.203 14.482,25.203 C11.618,25.203 8.927,24.087 6.901,22.063 L6.901,22.063 Z M20.812,26.656 C22.04,26.016 23.178,25.19 24.185,24.183 C25.267,23.102 26.119,21.878 26.762,20.578 L51.419,45.234 C50.105,45.888 48.885,46.747 47.815,47.816 C46.797,48.834 45.975,49.974 45.344,51.189 L20.812,26.656 L20.812,26.656 Z M66.479,56.051 C65.11,54.682 63.289,53.928 61.352,53.928 C59.414,53.928 57.592,54.682 56.223,56.052 C54.853,57.421 54.098,59.242 54.097,61.18 C54.097,63.118 54.851,64.939 56.221,66.308 L58.125,68.213 C55.075,68.397 52.103,67.265 49.936,65.098 C45.756,60.917 45.756,54.117 49.936,49.937 C51.961,47.913 54.654,46.797 57.517,46.797 C60.38,46.797 63.073,47.912 65.098,49.937 C67.204,52.044 68.309,54.901 68.233,57.805 L66.479,56.051 L66.479,56.051 Z" id="Shape" fill="#69788C"></path>
                        </g>
                    </g>
                </g>
            </g>
        </g>
    </g>
</svg>