<?xml version="1.0" encoding="UTF-8" standalone="no"?>
<svg width="86px" height="87px" viewBox="0 0 86 87" version="1.1" xmlns="http://www.w3.org/2000/svg" xmlns:xlink="http://www.w3.org/1999/xlink" xmlns:sketch="http://www.bohemiancoding.com/sketch/ns">
    <!-- Generator: Sketch 3.3.3 (12081) - http://www.bohemiancoding.com/sketch -->
    <title>Ship</title>
    <desc>Created with Sketch.</desc>
    <defs>
        <path id="path-1" d="M68.49,81.598 C66.275,81.598 65.211,80.583 63.522,78.789 C61.746,76.903 59.535,74.554 55.227,74.554 C50.923,74.554 48.715,76.903 46.941,78.79 C45.255,80.583 44.194,81.598 41.985,81.598 C39.777,81.598 38.716,80.583 37.031,78.79 C35.258,76.903 33.05,74.554 28.747,74.554 C24.444,74.554 22.237,76.903 20.463,78.79 C18.778,80.583 17.718,81.597 15.51,81.597 C14.263,81.597 13.252,82.582 13.252,83.798 C13.252,85.014 14.263,85.999 15.51,85.999 C19.813,85.999 22.02,83.65 23.793,81.763 C25.478,79.97 26.538,78.956 28.746,78.956 C30.954,78.956 32.015,79.971 33.7,81.763 C35.474,83.651 37.681,86 41.985,86 C46.289,86 48.497,83.651 50.271,81.764 C51.957,79.971 53.018,78.956 55.227,78.956 C57.442,78.956 58.506,79.971 60.195,81.765 C61.971,83.652 64.182,86 68.49,86 C69.737,86 70.748,85.015 70.748,83.799 C70.748,82.583 69.737,81.598 68.49,81.598 L68.49,81.598 Z"></path>
    </defs>
    <g id="Page-1" stroke="none" stroke-width="1" fill="none" fill-rule="evenodd" sketch:type="MSPage">
        <g id="Homepage" sketch:type="MSArtboardGroup" transform="translate(-228.000000, -1447.000000)">
            <g id="Browse" sketch:type="MSLayerGroup" transform="translate(0.000000, 1102.000000)">
                <g id="Cards" transform="translate(149.000000, 289.000000)">
                    <g id="Ship" transform="translate(80.000000, 56.500000)">
                        <g id="Group">
                            <path d="M47,2 C47,0.895 46.105,0 45,0 L39,0 C37.895,0 37,0.895 37,2 L37,5 L47,5 L47,2 L47,2 Z" id="Shape" fill="#69788C" sketch:type="MSShapeGroup"></path>
                            <rect id="Rectangle-path" fill="#69788C" sketch:type="MSShapeGroup" x="37" y="7" width="10" height="6"></rect>
                            <path d="M55,18 C55,16.895 54.105,16 53,16 L31,16 C29.895,16 29,16.895 29,18 L29,23 L55,23 L55,18 L55,18 Z" id="Shape" fill="#69788C" sketch:type="MSShapeGroup"></path>
                            <path d="M40.37,35.27 L40.49,35.23 C40.98,35.08 41.49,35 42,35 C42.51,35 43.02,35.08 43.51,35.23 L43.63,35.27 L43.75,35.33 L61,42.55 L61,28 C61,26.9 60.1,26 59,26 L25,26 C23.9,26 23,26.9 23,28 L23,42.55 L40.25,35.33 L40.37,35.27 L40.37,35.27 Z" id="Shape" stroke="#69788C" stroke-width="3" sketch:type="MSShapeGroup"></path>
                            <path d="M18.9,65.61 C20.83,63.56 23.71,61 28.74,61 C34.36,61 37.29,64.2 39.23,66.32 C39.79,66.93 40.18,67.33 40.5,67.61 L40.5,38.47 L12.36,50.26 C11.33,50.59 10.76,51.71 11.1,52.75 L18.9,65.61 L18.9,65.61 Z" id="Shape" stroke="#69788C" stroke-width="3" sketch:type="MSShapeGroup"></path>
                            <g id="Shape">
                                <use stroke="#F6F8FA" stroke-width="1" fill="#DD2A49" fill-rule="evenodd" sketch:type="MSShapeGroup" xlink:href="#path-1"></use>
                                <use stroke="none" fill="none" xlink:href="#path-1"></use>
                            </g>
                            <path d="M81.742,64 C77.434,64 75.223,66.409 73.447,68.344 C71.758,70.184 70.694,71.226 68.479,71.226 C66.264,71.226 65.2,70.185 63.511,68.344 C61.734,66.409 59.524,64 55.215,64 C50.911,64 48.703,66.409 46.929,68.345 C45.243,70.184 44.182,71.225 41.973,71.225 C39.765,71.225 38.704,70.184 37.019,68.345 C35.246,66.41 33.039,64 28.735,64 C24.432,64 22.225,66.41 20.451,68.346 C18.766,70.185 17.706,71.226 15.498,71.226 C13.289,71.226 12.228,70.185 10.543,68.346 C8.769,66.409 6.562,64 2.258,64 C1.011,64 0,65.011 0,66.258 C0,67.505 1.011,68.516 2.258,68.516 C4.467,68.516 5.528,69.557 7.213,71.396 C8.987,73.332 11.194,75.741 15.498,75.741 C19.801,75.741 22.008,73.331 23.781,71.395 C25.466,69.556 26.526,68.515 28.734,68.515 C30.942,68.515 32.003,69.556 33.689,71.395 C35.462,73.331 37.67,75.74 41.973,75.74 C46.277,75.74 48.485,73.331 50.259,71.395 C51.945,69.555 53.006,68.515 55.215,68.515 C57.43,68.515 58.494,69.556 60.183,71.397 C61.959,73.332 64.17,75.741 68.478,75.741 C72.786,75.741 74.997,73.332 76.773,71.397 C78.462,69.557 79.526,68.515 81.741,68.515 C82.988,68.515 83.999,67.504 83.999,66.257 C84,65.011 82.989,64 81.742,64 L81.742,64 Z" id="Shape" stroke="#F6F8FA" fill="#DD2A49" sketch:type="MSShapeGroup"></path>
                            <path d="M43.5,67.57 C43.81,67.28 44.19,66.89 44.72,66.32 C46.66,64.2 49.59,61 55.22,61 C60.26,61 63.14,63.57 65.08,65.63 L72.9,52.75 C73.24,51.71 72.67,50.59 71.64,50.26 L43.5,38.47 L43.5,67.57 L43.5,67.57 Z" id="Shape" stroke="#69788C" stroke-width="3" sketch:type="MSShapeGroup"></path>
                        </g>
                    </g>
                </g>
            </g>
        </g>
    </g>
</svg>