<?xml version="1.0" encoding="UTF-8" standalone="no"?>
<svg width="31px" height="30px" viewBox="0 0 31 30" version="1.1" xmlns="http://www.w3.org/2000/svg" xmlns:xlink="http://www.w3.org/1999/xlink" xmlns:sketch="http://www.bohemiancoding.com/sketch/ns">
    <!-- Generator: Sketch 3.3.3 (12081) - http://www.bohemiancoding.com/sketch -->
    <title>Twitter</title>
    <desc>Created with Sketch.</desc>
    <defs></defs>
    <g id="Page-1" stroke="none" stroke-width="1" fill="none" fill-rule="evenodd" sketch:type="MSPage">
        <g id="Homepage" sketch:type="MSArtboardGroup" transform="translate(-534.000000, -2558.000000)">
            <g id="Footer" sketch:type="MSLayerGroup" transform="translate(0.000000, 2463.000000)">
                <g transform="translate(156.000000, 60.000000)" id="Footer-Link" sketch:type="MSShapeGroup">
                    <g transform="translate(2.000000, 0.000000)">
                        <g id="Social-Links" transform="translate(376.000000, 35.000000)">
                            <g id="Twitter">
                                <path d="M0,15 C0,6.71572834 6.72543315,0 15.0216763,0 C23.3179194,0 30.0433526,6.71572834 30.0433526,15 C30.0433526,23.2842717 23.3179194,30 15.0216763,30 C6.72543315,30 0,23.2842717 0,15 Z" fill="#4099FF"></path>
                                <path d="M14.6498837,11.9439888 L14.6813603,12.4630226 L14.1567508,12.3994675 C12.2471722,12.1558393 10.578914,11.3296222 9.16246839,9.94200113 L8.46998385,9.25348685 L8.29161663,9.76192817 C7.91389779,10.8953286 8.15521816,12.0922842 8.9421324,12.8973163 C9.36182,13.3422024 9.26739029,13.4057576 8.54342918,13.1409444 C8.29161663,13.0562042 8.07128064,12.992649 8.05029626,13.0244266 C7.97685093,13.0985743 8.22866349,14.0624943 8.42801509,14.4438253 C8.70081203,14.9734516 9.2568981,15.4924855 9.86544512,15.7996688 L10.3795624,16.0432969 L9.77101541,16.0538894 C9.18345277,16.0538894 9.16246839,16.0644819 9.22542153,16.286925 C9.43526533,16.9754393 10.2641483,17.7063237 11.187461,18.0240995 L11.8379768,18.2465426 L11.2713986,18.5855035 C10.4320234,19.0727597 9.44575752,19.3481654 8.45949166,19.3693505 C7.98734312,19.379943 7.59913209,19.4223131 7.59913209,19.4540907 C7.59913209,19.560016 8.87917926,20.1531975 9.62412475,20.3862331 C11.8589612,21.0747474 14.5134853,20.7781566 16.5070013,19.6023861 C17.923447,18.7655764 19.3398926,17.1025496 20.0009006,15.4924855 C20.3576351,14.6344908 20.7143695,13.0667967 20.7143695,12.3147273 C20.7143695,11.827471 20.7458461,11.7639158 21.3334087,11.1813268 C21.679651,10.842366 22.0049089,10.4716275 22.067862,10.3657022 C22.1727839,10.1644442 22.1622917,10.1644442 21.62719,10.3445172 C20.7353539,10.662293 20.6094476,10.6199229 21.0501196,10.1432592 C21.3753775,9.80429827 21.7635885,9.18993169 21.7635885,9.00985872 C21.7635885,8.97808114 21.6062057,9.03104378 21.4278384,9.12637652 C21.238979,9.2323018 20.8192914,9.39118971 20.5045257,9.48652245 L19.9379475,9.66659542 L19.4238302,9.31704202 C19.140541,9.12637652 18.7418378,8.91452598 18.531994,8.85097081 C17.9968923,8.70267543 17.1785015,8.72386048 16.6958608,8.89334092 C15.384337,9.37000465 14.555454,10.5987378 14.6498837,11.9439888 Z" id="Path" fill="#FFFFFF"></path>
                            </g>
                        </g>
                    </g>
                </g>
            </g>
        </g>
    </g>
</svg>