<?xml version="1.0" encoding="UTF-8" standalone="no"?>
<svg width="31px" height="30px" viewBox="0 0 31 30" version="1.1" xmlns="http://www.w3.org/2000/svg" xmlns:xlink="http://www.w3.org/1999/xlink" xmlns:sketch="http://www.bohemiancoding.com/sketch/ns">
    <!-- Generator: Sketch 3.3.3 (12081) - http://www.bohemiancoding.com/sketch -->
    <title>Youtube</title>
    <desc>Created with Sketch.</desc>
    <defs></defs>
    <g id="Page-1" stroke="none" stroke-width="1" fill="none" fill-rule="evenodd" sketch:type="MSPage">
        <g id="Homepage" sketch:type="MSArtboardGroup" transform="translate(-613.000000, -2558.000000)">
            <g id="Footer" sketch:type="MSLayerGroup" transform="translate(0.000000, 2463.000000)">
                <g transform="translate(156.000000, 60.000000)" id="Footer-Link" sketch:type="MSShapeGroup">
                    <g transform="translate(2.000000, 0.000000)">
                        <g id="Social-Links" transform="translate(376.000000, 35.000000)">
                            <g id="Youtube" transform="translate(79.000000, 0.000000)">
                                <path d="M0.228323699,15 C0.228323699,6.71572834 6.95375685,0 15.25,0 C23.5462431,0 30.2716763,6.71572834 30.2716763,15 C30.2716763,23.2842717 23.5462431,30 15.25,30 C6.95375685,30 0.228323699,23.2842717 0.228323699,15 Z" id="YouTube" fill="#CD332D"></path>
                                <path d="M22.0136699,15.2141562 C22.7342832,15.9311758 22.7420789,19.4709268 22.7420789,19.4913779 C22.7420789,19.4913779 22.736241,23.0495566 22.0136699,23.7690693 C21.2960467,24.4845713 15.2471167,24.5 15.2471167,24.5 C15.2471167,24.5 9.19904097,24.4845713 8.47953115,23.7691055 C7.75995014,23.0520498 7.75795674,19.5182246 7.75795674,19.4913779 C7.75795674,19.470999 7.75991454,15.9311758 8.47953115,15.2141562 C9.19911216,14.4982207 15.2471167,14.4886816 15.2471167,14.4892236 C15.2471167,14.4886816 21.2960467,14.4982207 22.0136699,15.2141562 Z M11.2019786,22.4419473 L10.2166705,22.4419473 L10.2166705,17.2995254 L9.19804427,17.2995254 L9.19804427,16.4257617 L12.2205693,16.4257617 L12.2206049,17.2995254 L11.2019786,17.2995254 L11.2019786,22.4419473 Z M14.2274225,21.9538652 C14.0647114,22.1349629 13.8980135,22.2717979 13.7225589,22.3653818 C13.5480298,22.4609531 13.3793741,22.5066611 13.2146697,22.5066611 C13.011699,22.5066611 12.8616959,22.4419834 12.7578256,22.3086895 C12.6568386,22.1757568 12.6048679,21.9793027 12.6048679,21.7140518 L12.6048679,18.0030674 L13.4784389,18.0030674 L13.4784389,21.4075371 C13.4784389,21.5130088 13.4970558,21.5886348 13.532403,21.6353906 C13.5706335,21.6831582 13.6304355,21.7060664 13.7118088,21.7060664 C13.775562,21.7060664 13.8578964,21.6747031 13.9559289,21.6125186 C14.054958,21.549792 14.1441626,21.471167 14.2274581,21.3751621 L14.2274581,18.0031396 L15.1009935,18.0031396 L15.1009579,22.4419834 L14.2274225,22.4419834 L14.2274225,21.9538652 Z M17.4716063,22.4981338 C17.3000317,22.4981338 17.1480351,22.4668789 17.014691,22.402165 C16.8814181,22.3375234 16.754873,22.2379775 16.6412137,22.1016846 L16.6412137,22.4419834 L15.7579249,22.4419834 L15.7579249,16.4257617 L16.6412137,16.4257617 L16.6412137,18.3628057 C16.7598209,18.2284277 16.884337,18.1244375 17.0157233,18.0548457 C17.1489962,17.9842061 17.2834081,17.9493379 17.4186032,17.9493379 C17.6960771,17.9493379 17.9068789,18.0438975 18.0519698,18.2320049 C18.1990185,18.4215576 18.2715995,18.6986963 18.2715995,19.0619395 L18.2715995,21.5249326 C18.2715283,21.8388545 18.2028273,22.0797158 18.0656744,22.2474443 C17.9294114,22.4155703 17.7304276,22.4981338 17.4716063,22.4981338 Z M19.6303137,21.1651943 C19.6303137,21.399082 19.6588264,21.5607764 19.7156026,21.6518311 C19.7744079,21.741874 19.8724403,21.7862451 20.0116934,21.7862451 C20.1567131,21.7862451 20.2577356,21.7478721 20.3155798,21.6712705 C20.3724628,21.5946328 20.4028265,21.4264707 20.4028265,21.1651943 L20.4028265,20.9627061 L21.3018489,20.9627061 L21.3018489,21.1906318 C21.3018489,21.6459414 21.1929596,21.9887334 20.97244,22.2200918 C20.7548392,22.4489932 20.4273168,22.5628838 19.9920798,22.5628838 C19.6008755,22.5628838 19.2920412,22.4419473 19.0675348,22.1971475 C18.8429572,21.9539014 18.7292267,21.6184443 18.7292267,21.1905957 L18.7292267,19.197293 C18.7292267,18.8136709 18.8537429,18.4981953 19.1008174,18.2563584 C19.3478207,18.0140518 19.6654829,17.8931514 20.0576839,17.8931514 C20.457645,17.8931514 20.7655181,18.0055605 20.9802,18.2299814 C21.1948818,18.4538604 21.3018133,18.7763096 21.3018133,19.197293 L21.3018133,20.3287559 L19.6303137,20.328792 L19.6303137,21.1651943 Z M17.2794213,18.7693359 C17.3411099,18.8469131 17.3715448,18.9608398 17.3715448,19.1106465 L17.3715448,21.4025146 C17.3715448,21.5452754 17.3450611,21.6457969 17.295155,21.7080176 C17.2451776,21.7717197 17.1666876,21.803083 17.0598272,21.803083 C16.9853596,21.803083 16.9157686,21.7861006 16.8490254,21.7548096 C16.7814279,21.723916 16.7117657,21.6696807 16.6412137,21.5980654 L16.6412137,18.8325684 C16.70098,18.7713594 16.760782,18.726085 16.821545,18.6971787 C16.8823792,18.667333 16.9441034,18.6538916 17.0068242,18.6538916 C17.1244347,18.6538916 17.2156682,18.6926982 17.2794213,18.7693359 Z M19.7205505,18.7922441 C19.6597875,18.8697852 19.6303849,19.0041631 19.6303849,19.1898135 L19.6303849,19.6381133 L20.4029333,19.6381133 L20.4029333,19.1898135 C20.4029333,19.0041992 20.3715729,18.8698936 20.3107387,18.7922441 C20.2519334,18.7091025 20.1529399,18.6698262 20.0205569,18.6698262 C19.881375,18.6698262 19.7813848,18.7091025 19.7205505,18.7922441 Z" id="Path" fill="#FFFFFF"></path>
                                <path d="M9.75890098,6 L11.0774624,10.0015283 L11.0774624,12.6272637 L12.1853645,12.6272637 L12.1853645,9.87762891 L13.4745233,6 L12.34804,6 L11.6638062,8.64911328 L11.5941796,8.64911328 L10.874563,6 L9.75890098,6 Z M15.0196202,7.61470313 C15.4264513,7.61470313 15.7608082,7.73307422 16.0215873,7.96996094 C16.2803731,8.20630566 16.4107983,8.51130273 16.4107983,8.8840127 L16.4107983,11.4096963 C16.4107983,11.8276445 16.2833632,12.1550801 16.0294541,12.3934482 C15.772555,12.6312744 15.4225713,12.7507295 14.9745551,12.7507295 C14.5451559,12.7507295 14.2000845,12.6272998 13.9412276,12.3825723 C13.684364,12.1367246 13.55401,11.8058564 13.55401,11.3904014 L13.5539388,8.85662402 C13.5539388,8.47697656 13.6862862,8.17544824 13.9519777,7.9515332 C14.216708,7.7271123 14.5735262,7.61470313 15.0196202,7.61470313 Z M14.9725261,11.9037402 C15.1059058,11.9037402 15.2107728,11.8659814 15.2901883,11.7918008 C15.3686784,11.7161387 15.4079056,11.6131963 15.4079056,11.482793 L15.4079056,8.8192627 C15.4079056,8.7123457 15.3676461,8.62624121 15.2872694,8.5600459 C15.2068928,8.49439258 15.1019902,8.46201758 14.9725261,8.46201758 C14.8519612,8.46201758 14.7549254,8.49439258 14.6794255,8.5600459 C14.6049222,8.62624121 14.5666917,8.71227344 14.5666917,8.8192627 L14.5666917,11.4828291 C14.5666561,11.616665 14.6029288,11.7196436 14.6725198,11.7937881 C14.7421463,11.8674268 14.8421722,11.9037402 14.9725261,11.9037402 Z M19.0323299,12.6272998 L19.0323299,12.0874395 C18.8528885,12.2859531 18.6637293,12.4387588 18.4665965,12.542207 C18.2705316,12.6461973 18.0803045,12.6980117 17.8959508,12.6980117 C17.6666033,12.6980117 17.4969509,12.6248428 17.3813338,12.4795527 C17.2666066,12.3337568 17.2087625,12.1158398 17.2087625,11.8242119 L17.2087625,7.73806055 L18.1910805,7.73806055 L18.1910805,11.4862979 C18.1910805,11.602248 18.2136842,11.6858232 18.2548336,11.7375654 C18.2950219,11.7893799 18.3626551,11.8156846 18.4548497,11.8156846 C18.5263985,11.8156846 18.6185931,11.7808887 18.7293335,11.7127061 C18.8391127,11.6440537 18.9410964,11.5563955 19.0322588,11.4489727 L19.0322588,7.73806055 L20.0166413,7.73806055 L20.0166413,12.6272998 L19.0323299,12.6272998 Z" id="Path" fill="#FFFFFF"></path>
                            </g>
                        </g>
                    </g>
                </g>
            </g>
        </g>
    </g>
</svg>